PathFileType	4	(X/Y/Z)	path1_04_0-548.trc
DataRate	CameraRate	NumFrames	NumMarkers	Units	OrigDataRate	OrigDataStartFrame	OrigNumFrames
30	30	5	22	m	30	274	548
Frame#	Time	Hip			RHip			RKnee			RAnkle			RBigToe			RSmallToe			RHeel			LHip			LKnee			LAnkle			LBigToe			LSmallToe			LHeel			Neck			Head			Nose			RShoulder			RElbow			RWrist			LShoulder			LElbow			LWrist		
		X1	Y1	Z1	X2	Y2	Z2	X3	Y3	Z3	X4	Y4	Z4	X5	Y5	Z5	X6	Y6	Z6	X7	Y7	Z7	X8	Y8	Z8	X9	Y9	Z9	X10	Y10	Z10	X11	Y11	Z11	X12	Y12	Z12	X13	Y13	Z13	X14	Y14	Z14	X15	Y15	Z15	X16	Y16	Z16	X17	Y17	Z17	X18	Y18	Z18	X19	Y19	Z19	X20	Y20	Z20	X21	Y21	Z21	X22	Y22	Z22
275	9.166666666666666	2.7060054095532458	0.8381970410635536	0.4536204210076408	2.712950044824381	0.8027985591324528	0.3727942703655365	2.703346086432203	0.464741258440161	0.3694174752539563	2.7232860237531247	0.11130417582786521	0.37283197320537165	2.5773645534174476	0.030764281266225813	0.3540143385909797	2.601794522777831	0.0239785092621316	0.2946458913716848	2.7995591213566247	0.03015703395175452	0.39892823059726706	2.7077925328315158	0.8032766279656208	0.5365610741655414	2.727697258468049	0.4370569795780528	0.5188100491952458	2.7549593233638827	0.10180190171766394	0.5318743908604413	2.586111451054394	0.01406922667495417	0.5677403386277712	2.6308548052644114	0.011457680818497525	0.6168924080395192	2.802673178233538	0.031247262390140747	0.5192410841484142	2.6771738123104614	1.4647530072736166	0.466456934307633	2.6312360412790925	1.696807928163683	0.46736604699257756	2.538270990874945	1.5959666215246067	0.4495220670198908	2.7241449245291456	1.3654629801477336	0.2904796699954768	2.7314585826375772	1.0771777071586275	0.2252056515025183	2.698593556558787	0.8475303765814232	0.20853938450614365	2.7077727082493133	1.3499976142437065	0.6088371829821878	2.753375497144274	1.0725876446170086	0.6666895400427416	2.733215378532134	0.8426846474129165	0.689509784319365
276	9.2	2.70576249994937	0.8379411275394947	0.4536539942157152	2.713053015338368	0.8025251548902291	0.3729903143342942	2.70414890264438	0.4638678160445654	0.3703307068628151	2.7244662637729324	0.11106454596684627	0.37321951560663263	2.577644989098781	0.030799311893581864	0.35388044908519933	2.602145085321232	0.023603474771760405	0.29471634218789144	2.8002329704705504	0.029943574135173966	0.398901397274092	2.706726172054366	0.80319615080913	0.5370381193779021	2.727088876389221	0.4364740262752166	0.5190036330456448	2.751393647506639	0.10354096227353216	0.528072719327618	2.586248742978874	0.013884756530891591	0.5669193776501128	2.6305369638207328	0.01046581330913972	0.6151115517701002	2.800220032193608	0.03352630793645742	0.5182771228552122	2.6770650708407278	1.4649005492026557	0.46664526507166026	2.6273307783530164	1.6962039516082057	0.46760984424478724	2.5380750867948385	1.595896333682084	0.44934919361361014	2.7245342035125675	1.365358331367472	0.2914912633570699	2.7311594804949966	1.0777361018535667	0.225265758297121	2.698584454006138	0.8479578561741303	0.20847833469031202	2.7018014571040228	1.3495254624087882	0.6134772399896192	2.7530692563719783	1.0722140971811793	0.6662529879095113	2.733037660033726	0.842014724586236	0.6893109427858392
277	9.233333333333333	2.705206842529986	0.8374611083933843	0.453664193275545	2.7124150767891413	0.8014913749074998	0.37266785975853084	2.7034228759740886	0.46350982324995643	0.368866460119152	2.7266486869537947	0.1106581659731328	0.3739543159091351	2.577843505081366	0.030801937210388017	0.3532744787240324	2.6028020907099876	0.02282995373123222	0.2948731827485523	2.8005826834857874	0.02973311683704277	0.3990059654784772	2.7059475550648813	0.8019610888158982	0.5367510504470141	2.726923557054057	0.43544957019925057	0.5190310465057795	2.7495848529777205	0.10417771315794612	0.5259065834923818	2.585979233929545	0.014471068500539162	0.5669413556589381	2.6294194260078787	0.010192271437150128	0.6124626943904137	2.7992057996902795	0.034966275013090714	0.5179973517791596	2.676689984169766	1.4652321267916464	0.4668437598431779	2.625261088481637	1.696809473848271	0.4672591147175723	2.5377434441332296	1.5958692733262254	0.4491089053887554	2.724821165787239	1.3649273374056754	0.2923940734987204	2.7307095263123458	1.0783087966628693	0.22540090110396788	2.6984748704320736	0.8485527776089842	0.20849924475611228	2.6966789621245866	1.3487117328604281	0.6177002611983601	2.752767416885756	1.071831038994513	0.6659517303104484	2.7329521576040223	0.841345377148141	0.6891416643723891
278	9.266666666666667	2.70459977122514	0.8368886867999666	0.4535813830167664	2.711307003031365	0.8001898445052262	0.37189455347206424	2.7017064571417824	0.46363876926097436	0.3658523778172875	2.7297677588796536	0.11016878985902928	0.3750712331673247	2.5778606613908908	0.03089948278427848	0.35231742729298543	2.6038072203960265	0.02195887561088765	0.29520384618771167	2.800524293373378	0.029557482076335316	0.399286209911927	2.7056009615144374	0.8001304836007626	0.5358214201088675	2.7269984642598937	0.43428414368257906	0.5188500566620966	2.7497390997446645	0.10374119076658879	0.5256466651612443	2.585498966959078	0.015440747118645971	0.5676581147121695	2.627738507909855	0.010988379744624742	0.6100002908868791	2.7997880927254903	0.035229030654823176	0.5184542943840316	2.676191012846549	1.4656280693130384	0.46700989174359353	2.6256625044419364	1.698402216463729	0.4657197090190956	2.537343104381794	1.5958433097800115	0.4489972938151216	2.724838816766837	1.3643660816330196	0.29311356462061733	2.730259474607949	1.078806382456587	0.22559056712355804	2.6982221777892996	0.8491316886317769	0.20861511436323468	2.692577698371139	1.3476820539830003	0.6215244002116687	2.752525369207628	1.071502410104736	0.6657815229303997	2.7329952591594937	0.8407504788634603	0.6889865513591921
279	9.3	2.7042771462185393	0.8363668478474724	0.4533905012257252	2.7101709330930746	0.799255673929514	0.37086418635412904	2.6999871830760647	0.4639777879138261	0.3627748057433188	2.7334412509709938	0.10966238128310349	0.3764273878666153	2.577716482476787	0.03112391563122819	0.35129343763528653	2.605107832399985	0.021284915622930323	0.2957316319774541	2.8001813772014943	0.029401434112442643	0.399676072072423	2.7057426419862236	0.798508999845257	0.5346176013491778	2.7270539652383974	0.4333031549575525	0.5186163186022681	2.75158729203073	0.10247343210041501	0.5270907285388636	2.5851876088277006	0.016144859024524734	0.568574792699143	2.6260755663287987	0.012836332205054028	0.6087800923447126	2.8017676538532386	0.0343208853751222	0.5194939426762952	2.6757449572094867	1.4659334421700887	0.46712943769640475	2.627219789390611	1.7003620294829538	0.46210985478205957	2.5369793583414277	1.5957790802609455	0.44936555775892395	2.724460428784262	1.3639044011001367	0.29361668653334005	2.7299480667297122	1.0791721346941956	0.22578618592553013	2.697857178457418	0.8495101543617241	0.20877546593077292	2.6899086214992005	1.3467626530823469	0.6244975414627146	2.752393877616613	1.0712549415489845	0.6656073927180874	2.733165064159612	0.8402961564600724	0.6888609806037069
